<?xml version="1.0" encoding="utf-8"?>
<!-- Generator: Adobe Illustrator 20.1.0, SVG Export Plug-In . SVG Version: 6.00 Build 0)  -->
<svg version="1.1" id="Layer_1" xmlns="http://www.w3.org/2000/svg" xmlns:xlink="http://www.w3.org/1999/xlink" x="0px" y="0px"
	 viewBox="0 0 250 250" style="enable-background:new 0 0 250 250;" xml:space="preserve">
<style type="text/css">
	.st0{fill:#529623;}
	.st1{fill:#567F3A;}
	.st2{fill:#FFFFFF;}
</style>
<g>
	<polygon class="st0" points="150,30 150,30 150,30 56.9,63.2 71.1,186.3 150,230 150,230 150,230 228.9,186.3 243.1,63.2 	"/>
	<polygon class="st1" points="150,30 150,52.2 150,52.1 150,153.4 150,153.4 150,230 150,230 228.9,186.3 243.1,63.2 	"/>
	<path class="st2" d="M150,52.1L91.8,182.6l0,0h21.7l0,0l11.7-29.2h49.4l11.7,29.2l0,0H208l0,0L150,52.1L150,52.1L150,52.1L150,52.1
		L150,52.1z M167,135.4h-34l17-40.9L167,135.4z"/>
</g>
</svg>
